<svg width="34" height="34" viewBox="0 0 34 34" fill="none" xmlns="http://www.w3.org/2000/svg">
<path fill-rule="evenodd" clip-rule="evenodd" d="M25.5079 13.754C25.5079 20.2456 20.2455 25.508 13.754 25.508C7.26243 25.508 2 20.2456 2 13.754C2 7.26244 7.26243 2 13.754 2C20.2455 2 25.5079 7.26244 25.5079 13.754ZM22.7468 24.1611C20.3356 26.2465 17.1921 27.508 13.754 27.508C6.15786 27.508 0 21.3501 0 13.754C0 6.15788 6.15786 0 13.754 0C21.3501 0 27.5079 6.15788 27.5079 13.754C27.5079 17.1921 26.2464 20.3356 24.161 22.7469L33.505 32.0909L32.0908 33.5051L22.7468 24.1611Z" fill="black"/>
</svg>
