<svg width="24" height="24" viewBox="0 0 24 24" fill="none" xmlns="http://www.w3.org/2000/svg">
<g id="icon / followers">
<path id="icon" fill-rule="evenodd" clip-rule="evenodd" d="M5.40766 10.4286C5.40766 8.50494 6.76117 7 8.83623 7C10.9055 7 12.2648 8.64707 12.2648 10.6C12.2648 13.4111 10.7374 14.7143 8.83623 14.7143C6.91697 14.7143 5.40766 13.3663 5.40766 10.4286ZM7.12194 10.4286C7.12194 12.3736 7.82327 13 8.83623 13C9.84569 13 10.5505 12.3986 10.5505 10.6C10.5505 9.52893 9.87822 8.71429 8.83623 8.71429C7.75086 8.71429 7.12194 9.41356 7.12194 10.4286ZM2 17.7791C2.42927 18.2309 2.90286 18.6402 3.4138 19H3.69337V18.1429C3.69337 17.1161 5.53125 16.4286 8.83623 16.4286C12.1412 16.4286 13.9791 17.1161 13.9791 18.1429V19H14.2586C14.7696 18.6402 15.2432 18.2309 15.6725 17.7791C15.4159 15.6099 12.8172 14.7143 8.83623 14.7143C4.85527 14.7143 2.25653 15.6099 2 17.7791Z" fill="black"/>
<path id="icon_2" fill-rule="evenodd" clip-rule="evenodd" d="M12.4321 7.42857C12.4321 5.50494 13.7856 4 15.8606 4C17.9299 4 19.2892 5.64707 19.2892 7.6C19.2892 10.4111 17.7618 11.7143 15.8606 11.7143C13.9414 11.7143 12.4321 10.3663 12.4321 7.42857ZM14.1463 7.42857C14.1463 9.37365 14.8477 10 15.8606 10C16.8701 10 17.5749 9.39862 17.5749 7.6C17.5749 6.52893 16.9026 5.71429 15.8606 5.71429C14.7753 5.71429 14.1463 6.41356 14.1463 7.42857ZM9.0244 14.7791C9.45368 15.2309 9.92727 15.6402 10.4382 16H10.7178V15.1429C10.7178 14.1161 12.5557 13.4286 15.8606 13.4286C19.1656 13.4286 21.0035 14.1161 21.0035 15.1429V16H21.283C21.794 15.6402 22.2676 15.2309 22.6969 14.7791C22.4403 12.6099 19.8416 11.7143 15.8606 11.7143C11.8797 11.7143 9.28093 12.6099 9.0244 14.7791Z" fill="black"/>
</g>
</svg>
