<svg width="27" height="24" viewBox="0 0 27 24" fill="none" xmlns="http://www.w3.org/2000/svg">
<path fill-rule="evenodd" clip-rule="evenodd" d="M5.92262 10.4286C5.92262 8.50494 7.40504 7 9.67773 7C11.9441 7 13.4328 8.64707 13.4328 10.6C13.4328 13.4111 11.76 14.7143 9.67773 14.7143C7.57568 14.7143 5.92262 13.3663 5.92262 10.4286ZM7.80018 10.4286C7.80018 12.3736 8.56829 13 9.67773 13C10.7833 13 11.5553 12.3986 11.5553 10.6C11.5553 9.52893 10.819 8.71429 9.67773 8.71429C8.48899 8.71429 7.80018 9.41356 7.80018 10.4286ZM2.19043 17.7791C2.66059 18.2309 3.17928 18.6402 3.73888 19H4.04507V18.1429C4.04507 17.1161 6.05799 16.4286 9.67772 16.4286C13.2975 16.4286 15.3104 17.1161 15.3104 18.1429V19H15.6166C16.1762 18.6402 16.6949 18.2309 17.165 17.7791C16.8841 15.6099 14.0378 14.7143 9.67772 14.7143C5.31763 14.7143 2.47139 15.6099 2.19043 17.7791Z" fill="black"/>
<path fill-rule="evenodd" clip-rule="evenodd" d="M13.616 7.42857C13.616 5.50494 15.0984 4 17.3711 4C19.6375 4 21.1262 5.64707 21.1262 7.6C21.1262 10.4111 19.4534 11.7143 17.3711 11.7143C15.269 11.7143 13.616 10.3663 13.616 7.42857ZM15.4935 7.42857C15.4935 9.37365 16.2617 10 17.3711 10C18.4767 10 19.2486 9.39862 19.2486 7.6C19.2486 6.52893 18.5123 5.71429 17.3711 5.71429C16.1824 5.71429 15.4935 6.41356 15.4935 7.42857ZM9.88379 14.7791C10.3539 15.2309 10.8726 15.6402 11.4322 16H11.7384V15.1429C11.7384 14.1161 13.7513 13.4286 17.3711 13.4286C20.9908 13.4286 23.0037 14.1161 23.0037 15.1429V16H23.3099C23.8695 15.6402 24.3882 15.2309 24.8584 14.7791C24.5774 12.6099 21.7312 11.7143 17.3711 11.7143C13.011 11.7143 10.1648 12.6099 9.88379 14.7791Z" fill="black"/>
</svg>
